<svg width="175" height="190" viewBox="0 0 175 190" fill="none" xmlns="http://www.w3.org/2000/svg">
<circle cx="89.5" cy="97.5" r="76" fill="#CDDDCB" stroke="black"/>
<path d="M70.928 107.456C70.928 112.704 68.56 117.12 63.824 120.704C59.088 124.224 53.648 125.984 47.504 125.984C41.424 125.984 36.4 124.416 32.432 121.28C28.464 118.08 26.48 115.072 26.48 112.256C26.48 110.336 27.056 109.376 28.208 109.376C29.232 109.376 31.248 110.912 34.256 113.984C35.408 115.072 36.944 116.096 38.864 117.056C40.848 118.016 42.928 118.496 45.104 118.496C49.584 118.496 53.552 117.344 57.008 115.04C60.528 112.736 62.288 110.24 62.288 107.552C62.288 105.824 61.136 103.616 58.832 100.928C56.528 98.24 53.968 95.712 51.152 93.344C48.4 90.912 45.872 88.32 43.568 85.568C41.264 82.816 40.112 80.64 40.112 79.04C40.112 77.44 40.432 75.744 41.072 73.952C41.712 72.16 42.416 70.848 43.184 70.016C45.68 67.264 49.552 64.736 54.8 62.432C60.112 60.128 64.56 58.976 68.144 58.976C70 58.976 71.568 59.584 72.848 60.8C74.128 62.016 74.768 63.296 74.768 64.64C74.768 65.28 74.096 65.792 72.752 66.176C71.408 66.56 69.36 67.072 66.608 67.712C63.92 68.288 61.52 68.992 59.408 69.824C52.048 72.64 48.368 75.36 48.368 77.984C48.368 79.392 52.112 83.328 59.6 89.792C62.48 92.288 65.072 95.2 67.376 98.528C69.744 101.792 70.928 104.768 70.928 107.456ZM124.808 58.976C132.296 58.976 137.96 61.952 141.8 67.904C145.64 73.856 147.56 81.344 147.56 90.368C147.56 99.392 145.32 107.616 140.84 115.04C136.424 122.4 131.304 126.08 125.48 126.08C121.384 126.08 118.376 123.776 116.456 119.168C114.536 114.56 113.288 108 112.712 99.488C110.024 103.264 106.952 107.552 103.496 112.352C96.84 121.568 92.168 126.176 89.48 126.176C88.456 126.176 87.272 125.344 85.928 123.68C84.584 122.016 83.912 119.936 83.912 117.44C83.912 114.88 84.776 106.976 86.504 93.728C88.232 80.416 89.096 70.048 89.096 62.624C89.096 60.256 89.8 59.072 91.208 59.072C92.616 59.072 94.248 59.904 96.104 61.568C98.024 63.232 98.984 64.768 98.984 66.176C98.984 67.52 97.896 74.272 95.72 86.432C93.608 98.592 92.296 108.128 91.784 115.04C95.688 108.448 100.072 102.368 104.936 96.8C109.864 91.168 113.384 88.352 115.496 88.352C117.672 88.352 119.176 93.152 120.008 102.752C120.328 106.336 120.936 109.632 121.832 112.64C122.792 115.648 124.072 117.152 125.672 117.152C129.256 117.152 132.36 114.272 134.984 108.512C137.672 102.688 139.016 96.256 139.016 89.216C139.016 81.408 137.288 75.392 133.832 71.168C132.04 68.928 130.056 67.808 127.88 67.808C125.768 67.808 123.944 67.072 122.408 65.6C120.936 64.128 120.2 62.848 120.2 61.76C120.2 59.904 121.736 58.976 124.808 58.976Z" fill="#2E7D32"/>
</svg>
